<?xml version="1.0" standalone="no"?>
<!DOCTYPE svg PUBLIC "-//W3C//DTD SVG 20010904//EN"
 "http://www.w3.org/TR/2001/REC-SVG-20010904/DTD/svg10.dtd">
<svg version="1.0" xmlns="http://www.w3.org/2000/svg"
 width="422.000000pt" height="156.000000pt" viewBox="0 0 422.000000 156.000000"
 preserveAspectRatio="xMidYMid meet">

<g transform="translate(0.000000,156.000000) scale(0.100000,-0.100000)"
fill="#000000" stroke="none">
<path d="M0 780 l0 -780 2110 0 2110 0 0 780 0 780 -2110 0 -2110 0 0 -780z
m782 678 c80 -24 150 -111 160 -198 l3 -25 -235 0 -235 0 3 30 c9 80 76 163
153 191 44 16 102 17 151 2z m808 -137 c0 -40 0 -40 -42 -43 l-43 -3 -3 -234
c-1 -152 -6 -239 -13 -248 -15 -17 -63 -17 -78 0 -7 9 -12 96 -13 248 l-3 234
-40 5 c-32 4 -41 9 -43 28 -7 50 -2 52 143 52 l135 0 0 -39z m286 14 c11 -46
1 -54 -78 -57 l-73 -3 -3 -77 -3 -78 61 0 60 0 0 -40 0 -39 -57 -3 -58 -3 -3
-82 -3 -83 69 0 c72 0 92 -10 92 -46 0 -38 -21 -45 -136 -42 l-109 3 -3 288
-2 287 120 0 c119 0 120 0 126 -25z m263 9 c31 -22 51 -73 51 -129 l0 -45 -39
0 -38 0 -7 49 c-6 49 -17 61 -57 61 -32 0 -39 -41 -39 -213 0 -172 8 -207 49
-207 28 0 42 24 48 84 l6 56 38 0 39 0 0 -55 c0 -70 -19 -116 -60 -145 -42
-30 -128 -25 -165 10 -37 35 -45 79 -45 255 0 195 5 228 40 265 25 27 34 30
92 30 43 0 71 -5 87 -16z m195 -1 c4 -10 6 -65 5 -123 l-2 -105 44 2 c24 1 47
2 52 2 4 1 7 55 7 122 l0 120 43 -3 42 -3 0 -285 0 -285 -40 0 -40 0 -5 120
-5 120 -49 0 -48 0 1 -111 c2 -124 -4 -138 -61 -132 l-33 3 -3 275 c-1 151 0
280 3 287 7 20 81 17 89 -4z m608 -12 l33 -29 2 -233 c1 -154 5 -235 12 -237
6 -2 11 -21 11 -43 0 -34 -3 -39 -23 -39 -12 0 -33 8 -46 17 -17 11 -41 16
-75 14 -64 -3 -115 28 -133 79 -7 22 -12 102 -12 212 -1 251 17 287 141 288
50 0 62 -4 90 -29z m188 -211 c3 -129 9 -241 13 -247 13 -20 55 -15 67 6 6 12
10 111 10 251 l0 231 43 -3 42 -3 3 -220 c3 -246 -4 -291 -50 -330 -35 -29
-111 -34 -157 -10 -55 28 -61 58 -61 325 l0 241 43 -3 42 -3 5 -235z m328 -47
l2 -283 -24 -6 c-13 -3 -33 -4 -43 -2 -17 3 -18 21 -21 291 l-2 288 42 -3 43
-3 3 -282z m312 247 c0 -43 -4 -55 -99 -284 -33 -82 -61 -153 -61 -157 0 -4
35 -9 78 -11 l77 -3 0 -40 0 -40 -127 -3 -128 -3 0 45 c0 33 21 96 80 240 44
107 80 199 80 205 0 7 -28 11 -75 11 l-75 0 0 40 0 40 125 0 125 0 0 -40z
m-2820 -120 c0 -19 -7 -20 -235 -20 -228 0 -235 1 -235 20 0 19 7 20 235 20
228 0 235 -1 235 -20z m-500 -340 l0 -310 -29 0 c-26 0 -30 5 -40 44 -15 62
-14 105 4 112 12 5 15 26 15 105 0 92 -1 99 -20 99 -19 0 -20 7 -20 130 l0
130 45 0 45 0 0 -310z m498 43 l-3 -268 -235 0 -235 0 -3 268 -2 267 240 0
240 0 -2 -267z m112 137 c0 -123 -1 -130 -20 -130 -19 0 -20 -7 -20 -99 0 -79
3 -100 15 -105 18 -7 19 -50 4 -112 -10 -39 -14 -44 -40 -44 l-29 0 0 310 0
310 45 0 45 0 0 -130z m334 -396 c9 -8 16 -22 16 -30 0 -19 -26 -18 -34 1 -8
22 -26 18 -26 -6 0 -12 14 -37 30 -56 17 -18 30 -44 30 -58 0 -27 -24 -55 -47
-55 -23 0 -53 30 -53 52 0 24 27 23 35 -2 7 -24 23 -26 31 -5 4 9 -7 30 -25
50 -40 46 -49 80 -26 105 22 24 48 26 69 4z m206 -73 l0 -90 28 -3 c16 -2 27
-9 27 -18 0 -11 -12 -15 -45 -15 l-45 0 -3 94 c-3 104 0 121 23 121 12 0 15
-16 15 -89z m289 75 c8 -9 11 -46 9 -102 -3 -86 -4 -89 -30 -98 -22 -8 -32 -6
-48 9 -17 15 -20 30 -20 93 0 56 4 80 17 94 19 21 56 24 72 4z m257 -11 c17
-27 12 -59 -9 -53 -6 3 -13 15 -15 27 -2 12 -9 20 -15 18 -18 -6 -16 -149 2
-155 11 -4 13 4 8 42 -6 44 -6 46 18 46 22 0 25 -4 25 -39 0 -23 -8 -48 -19
-62 -16 -20 -23 -22 -47 -14 -29 10 -29 12 -32 99 -2 56 1 93 9 102 18 22 57
17 75 -11z m257 -75 c10 -54 17 -104 17 -110 0 -18 -28 -11 -35 10 -3 11 -15
20 -25 20 -9 0 -20 -9 -23 -20 -7 -27 -27 -25 -27 3 0 23 16 135 25 175 4 15
13 22 29 22 21 0 24 -7 39 -100z m228 40 l17 -55 1 58 c1 44 5 57 16 57 12 0
15 -18 15 -104 0 -144 -29 -158 -61 -29 l-14 58 -3 -73 c-2 -52 -6 -72 -15
-69 -8 2 -13 38 -15 111 -3 106 -2 107 20 104 17 -2 26 -15 39 -58z m479 45
c0 -8 -7 -15 -15 -15 -11 0 -15 -19 -17 -92 -2 -75 -6 -93 -18 -93 -12 0 -16
18 -18 93 -2 73 -6 92 -17 92 -8 0 -15 7 -15 15 0 11 12 15 50 15 38 0 50 -4
50 -15z m248 -2 c2 -9 -7 -13 -27 -13 -28 0 -31 -3 -31 -30 0 -23 4 -30 20
-30 11 0 20 -7 20 -15 0 -8 -9 -15 -20 -15 -15 0 -20 -7 -20 -29 0 -25 4 -30
28 -33 16 -2 27 -9 27 -18 0 -11 -12 -15 -45 -15 l-45 0 -3 94 c-1 52 0 101 3
108 6 18 87 14 93 -4z m193 -20 l13 -38 14 38 c8 20 21 37 29 37 9 0 13 -6 10
-14 -27 -70 -29 -95 -13 -142 20 -58 20 -64 2 -64 -8 0 -21 19 -29 43 l-15 42
-11 -30 c-6 -16 -14 -36 -16 -42 -6 -17 -25 -16 -25 1 0 7 7 33 15 57 14 39
14 48 0 88 -19 55 -19 61 -1 61 8 0 20 -17 27 -37z m319 22 c0 -8 -7 -15 -15
-15 -11 0 -15 -19 -17 -92 -2 -75 -6 -93 -18 -93 -12 0 -16 18 -18 93 -2 73
-6 92 -17 92 -8 0 -15 7 -15 15 0 11 12 15 50 15 38 0 50 -4 50 -15z m-2940
-29 c0 -2 -22 -18 -48 -35 l-49 -31 -144 0 -145 0 -34 35 -34 35 227 0 c125 0
227 -2 227 -4z m-460 -176 l0 -100 -85 0 c-83 0 -85 1 -80 23 8 34 35 168 35
173 0 2 29 4 65 4 l65 0 0 -100z m615 78 c8 -35 35 -169 35 -174 0 -2 -38 -4
-85 -4 l-85 0 0 100 0 100 65 0 c59 0 65 -2 70 -22z"/>
<path d="M672 1398 c-36 -36 7 -91 54 -69 42 19 26 81 -21 81 -12 0 -26 -5
-33 -12z"/>
<path d="M804 1305 c-9 -23 4 -47 23 -43 22 4 30 38 11 49 -19 13 -28 11 -34
-6z"/>
<path d="M2810 1255 c-11 -28 -14 -325 -4 -363 8 -30 50 -40 72 -18 14 14 18
44 20 174 2 87 0 173 -5 192 -8 30 -14 35 -41 38 -27 3 -34 -1 -42 -23z"/>
<path d="M580 1120 c-33 -20 6 -28 129 -27 123 2 154 7 137 25 -10 10 -250 12
-266 2z"/>
<path d="M588 1053 c-31 -8 -19 -22 25 -28 46 -7 225 0 234 8 17 17 -20 24
-124 24 -65 0 -126 -2 -135 -4z"/>
<path d="M677 974 c-4 -4 -7 -24 -7 -45 0 -41 21 -56 61 -44 17 6 20 14 17 48
-3 39 -5 42 -33 45 -17 2 -34 0 -38 -4z"/>
<path d="M682 861 c-8 -5 -12 -23 -10 -47 3 -37 5 -39 38 -39 33 0 35 2 38 39
3 39 -8 56 -38 56 -8 0 -21 -4 -28 -9z"/>
<path d="M684 716 c-10 -25 0 -51 20 -54 27 -6 48 25 35 49 -12 22 -47 25 -55
5z"/>
<path d="M1840 550 c0 -61 3 -81 13 -77 8 2 12 27 12 77 0 50 -4 75 -12 78
-10 3 -13 -17 -13 -78z"/>
<path d="M2356 574 c-9 -25 -7 -64 4 -64 6 0 10 18 10 40 0 43 -4 50 -14 24z"/>
</g>
</svg>
